# xmcd CD database file
#
# Track frame offsets:
#	150
#	23492
#	44260
#	76754
#	98931
#	115968
#	129918
#	162870
#	177385
#	204175
#	222746
#	256135
#	277652
#
# Disc length: 4089 seconds
#
# Revision: 0
# Processed by: cddbd v1.5.2PL0 Copyright (c) Steve Scherf et al.
# Submitted via: CDex 1.70beta2
#
DISCID=a30ff70d
DTITLE=Diverse - Trombone - Greatest Works - CD 1
DYEAR=2008
DGENRE=Jazz
TTITLE0=Under The Double Eagle
TTITLE1=Peg O'My Heart
TTITLE2=After You've Gone
TTITLE3=Jack Hits The Road
TTITLE4=St. James Infirmary
TTITLE5=Caravan
TTITLE6=Blues For Duke
TTITLE7=Dickie's Dream
TTITLE8=Keepin' Out Of Mischief Now
TTITLE9=Slic Vic
TTITLE10=In The Good Old Summertime
TTITLE11=At Sundown
TTITLE12=Bones For The King
EXTD=YEAR: 2008
EXTT0=
EXTT1=
EXTT2=
EXTT3=
EXTT4=
EXTT5=
EXTT6=
EXTT7=
EXTT8=
EXTT9=
EXTT10=
EXTT11=
EXTT12=
PLAYORDER=
